<svg xmlns="http://www.w3.org/2000/svg" xmlns:xlink="http://www.w3.org/1999/xlink" width="500" zoomAndPan="magnify" viewBox="0 0 375 374.999991" height="500" preserveAspectRatio="xMidYMid meet" version="1.0"><defs><g/><clipPath id="be9a20b9ad"><rect x="0" width="222" y="0" height="251"/></clipPath></defs><rect x="-37.5" width="450" fill="#ffffff" y="-37.499999" height="449.999989" fill-opacity="1"/><rect x="-37.5" width="450" fill="#0088cc" y="-37.499999" height="449.999989" fill-opacity="1"/><g transform="matrix(1, 0, 0, 1, 77, 62)"><g clip-path="url(#be9a20b9ad)"><g fill="#ffffff" fill-opacity="1"><g transform="translate(0.223383, 187.530033)"><g><path d="M 10.03125 -175.4375 L 37.59375 -175.4375 L 37.59375 -25.0625 L 82.953125 -25.0625 L 82.953125 0 L 10.03125 0 Z M 10.03125 -175.4375 "/></g></g></g><g fill="#ffffff" fill-opacity="1"><g transform="translate(85.184768, 187.530033)"><g><path d="M 68.421875 -50.875 L 87.21875 -175.4375 L 125.5625 -175.4375 L 125.5625 0 L 99.5 0 L 99.5 -125.8125 L 80.453125 0 L 54.390625 0 L 33.828125 -124.0625 L 33.828125 0 L 9.78125 0 L 9.78125 -175.4375 L 48.125 -175.4375 Z M 68.421875 -50.875 "/></g></g></g></g></g></svg>