<svg width="1280" height="640" viewBox="0 0 1280 640" role="img" xmlns="http://www.w3.org/2000/svg">
  <title>Lionel Mosley — ahr-ki-tekt | IT Consultant &amp; Innovative Thought Leader</title>
  <desc>Data center architect banner for Lionel Mosley, IT Consultant, Houston TX, trust-lionel.com</desc>
  <defs>
    <linearGradient id="bg" x1="0%" y1="0%" x2="100%" y2="100%">
      <stop offset="0%" stop-color="#060e1a"/>
      <stop offset="100%" stop-color="#091525"/>
    </linearGradient>
    <linearGradient id="hotaisle" x1="0%" y1="0%" x2="0%" y2="100%">
      <stop offset="0%" stop-color="#1a4a8a" stop-opacity="0.0"/>
      <stop offset="50%" stop-color="#1060c0" stop-opacity="0.12"/>
      <stop offset="100%" stop-color="#1a4a8a" stop-opacity="0.0"/>
    </linearGradient>
    <linearGradient id="fadeleft" x1="0%" y1="0%" x2="100%" y2="0%">
      <stop offset="0%" stop-color="#060e1a" stop-opacity="1"/>
      <stop offset="42%" stop-color="#060e1a" stop-opacity="0.85"/>
      <stop offset="62%" stop-color="#060e1a" stop-opacity="0"/>
    </linearGradient>
    <linearGradient id="rackgrad" x1="0%" y1="0%" x2="0%" y2="100%">
      <stop offset="0%" stop-color="#0d2a50"/>
      <stop offset="100%" stop-color="#091d3a"/>
    </linearGradient>
  </defs>

  <!-- Background -->
  <rect width="1280" height="640" fill="url(#bg)"/>

  <!-- Floor grid -->
  <g stroke="#0d2545" stroke-width="0.5" opacity="0.8">
    <line x1="580" y1="0" x2="580" y2="640"/><line x1="620" y1="0" x2="620" y2="640"/>
    <line x1="660" y1="0" x2="660" y2="640"/><line x1="700" y1="0" x2="700" y2="640"/>
    <line x1="740" y1="0" x2="740" y2="640"/><line x1="780" y1="0" x2="780" y2="640"/>
    <line x1="820" y1="0" x2="820" y2="640"/><line x1="860" y1="0" x2="860" y2="640"/>
    <line x1="900" y1="0" x2="900" y2="640"/><line x1="940" y1="0" x2="940" y2="640"/>
    <line x1="980" y1="0" x2="980" y2="640"/><line x1="1020" y1="0" x2="1020" y2="640"/>
    <line x1="1060" y1="0" x2="1060" y2="640"/><line x1="1100" y1="0" x2="1100" y2="640"/>
    <line x1="1140" y1="0" x2="1140" y2="640"/><line x1="1180" y1="0" x2="1180" y2="640"/>
    <line x1="1220" y1="0" x2="1220" y2="640"/>
    <line x1="580" y1="40" x2="1280" y2="40"/><line x1="580" y1="80" x2="1280" y2="80"/>
    <line x1="580" y1="120" x2="1280" y2="120"/><line x1="580" y1="160" x2="1280" y2="160"/>
    <line x1="580" y1="200" x2="1280" y2="200"/><line x1="580" y1="240" x2="1280" y2="240"/>
    <line x1="580" y1="280" x2="1280" y2="280"/><line x1="580" y1="320" x2="1280" y2="320"/>
    <line x1="580" y1="360" x2="1280" y2="360"/><line x1="580" y1="400" x2="1280" y2="400"/>
    <line x1="580" y1="440" x2="1280" y2="440"/><line x1="580" y1="480" x2="1280" y2="480"/>
    <line x1="580" y1="520" x2="1280" y2="520"/><line x1="580" y1="560" x2="1280" y2="560"/>
    <line x1="580" y1="600" x2="1280" y2="600"/>
  </g>

  <!-- Data center outer boundary -->
  <rect x="610" y="40" width="645" height="555" rx="3" fill="none" stroke="#1a4070" stroke-width="1.2" opacity="0.7"/>

  <!-- Row A racks -->
  <g fill="url(#rackgrad)" stroke="#1a5090" stroke-width="0.6" opacity="0.9">
    <rect x="630" y="60" width="28" height="80" rx="2"/>
    <rect x="664" y="60" width="28" height="80" rx="2"/>
    <rect x="698" y="60" width="28" height="80" rx="2"/>
    <rect x="732" y="60" width="28" height="80" rx="2"/>
    <rect x="766" y="60" width="28" height="80" rx="2"/>
    <rect x="800" y="60" width="28" height="80" rx="2"/>
    <rect x="834" y="60" width="28" height="80" rx="2"/>
    <rect x="868" y="60" width="28" height="80" rx="2"/>
    <rect x="902" y="60" width="28" height="80" rx="2"/>
    <rect x="936" y="60" width="28" height="80" rx="2"/>
    <rect x="970" y="60" width="28" height="80" rx="2"/>
    <rect x="1004" y="60" width="28" height="80" rx="2"/>
  </g>
  <g fill="#00C853" opacity="0.9">
    <rect x="636" y="68" width="16" height="2" rx="1"/><rect x="636" y="74" width="16" height="2" rx="1"/><rect x="636" y="80" width="10" height="2" rx="1"/>
    <rect x="670" y="68" width="16" height="2" rx="1"/><rect x="670" y="74" width="16" height="2" rx="1"/><rect x="670" y="80" width="10" height="2" rx="1"/>
    <rect x="704" y="68" width="16" height="2" rx="1"/><rect x="704" y="74" width="16" height="2" rx="1"/>
    <rect x="738" y="68" width="16" height="2" rx="1"/><rect x="738" y="74" width="16" height="2" rx="1"/>
    <rect x="772" y="68" width="16" height="2" rx="1"/><rect x="772" y="74" width="16" height="2" rx="1"/>
    <rect x="806" y="68" width="16" height="2" rx="1"/><rect x="806" y="74" width="16" height="2" rx="1"/>
    <rect x="840" y="68" width="16" height="2" rx="1"/><rect x="840" y="74" width="16" height="2" rx="1"/>
    <rect x="874" y="68" width="16" height="2" rx="1"/><rect x="874" y="74" width="16" height="2" rx="1"/>
    <rect x="908" y="68" width="16" height="2" rx="1"/><rect x="942" y="68" width="16" height="2" rx="1"/>
  </g>

  <!-- Hot aisle A -->
  <rect x="630" y="145" width="490" height="35" fill="url(#hotaisle)" rx="1"/>
  <text x="870" y="167" font-family="'Montserrat', sans-serif" font-size="9" fill="#3a7fd4" opacity="0.5" text-anchor="middle" letter-spacing="3">HOT AISLE A</text>

  <!-- Row B racks -->
  <g fill="url(#rackgrad)" stroke="#1a5090" stroke-width="0.6" opacity="0.9">
    <rect x="630" y="185" width="28" height="80" rx="2"/>
    <rect x="664" y="185" width="28" height="80" rx="2"/>
    <rect x="698" y="185" width="28" height="80" rx="2"/>
    <rect x="732" y="185" width="28" height="80" rx="2"/>
    <rect x="766" y="185" width="28" height="80" rx="2"/>
    <rect x="800" y="185" width="28" height="80" rx="2"/>
    <rect x="834" y="185" width="28" height="80" rx="2"/>
    <rect x="868" y="185" width="28" height="80" rx="2"/>
    <rect x="902" y="185" width="28" height="80" rx="2"/>
    <rect x="936" y="185" width="28" height="80" rx="2"/>
    <rect x="970" y="185" width="28" height="80" rx="2"/>
    <rect x="1004" y="185" width="28" height="80" rx="2"/>
  </g>
  <g fill="#00C853" opacity="0.8">
    <rect x="636" y="193" width="16" height="2" rx="1"/><rect x="670" y="193" width="16" height="2" rx="1"/>
    <rect x="704" y="193" width="16" height="2" rx="1"/><rect x="738" y="193" width="16" height="2" rx="1"/>
    <rect x="772" y="193" width="16" height="2" rx="1"/><rect x="806" y="193" width="16" height="2" rx="1"/>
    <rect x="840" y="193" width="16" height="2" rx="1"/><rect x="874" y="193" width="16" height="2" rx="1"/>
    <rect x="908" y="193" width="16" height="2" rx="1"/><rect x="942" y="193" width="16" height="2" rx="1"/>
  </g>

  <!-- Cold aisle B -->
  <rect x="630" y="270" width="490" height="35" fill="#0a1e3a" rx="1" opacity="0.6"/>
  <text x="870" y="292" font-family="'Montserrat', sans-serif" font-size="9" fill="#5baad4" opacity="0.5" text-anchor="middle" letter-spacing="3">COLD AISLE B</text>

  <!-- Row C racks -->
  <g fill="url(#rackgrad)" stroke="#1a5090" stroke-width="0.6" opacity="0.9">
    <rect x="630" y="310" width="28" height="80" rx="2"/>
    <rect x="664" y="310" width="28" height="80" rx="2"/>
    <rect x="698" y="310" width="28" height="80" rx="2"/>
    <rect x="732" y="310" width="28" height="80" rx="2"/>
    <rect x="766" y="310" width="28" height="80" rx="2"/>
    <rect x="800" y="310" width="28" height="80" rx="2"/>
    <rect x="834" y="310" width="28" height="80" rx="2"/>
    <rect x="868" y="310" width="28" height="80" rx="2"/>
    <rect x="902" y="310" width="28" height="80" rx="2"/>
    <rect x="936" y="310" width="28" height="80" rx="2"/>
    <rect x="970" y="310" width="28" height="80" rx="2"/>
    <rect x="1004" y="310" width="28" height="80" rx="2"/>
  </g>
  <g fill="#00C853" opacity="0.75">
    <rect x="636" y="318" width="16" height="2" rx="1"/><rect x="670" y="318" width="16" height="2" rx="1"/>
    <rect x="704" y="318" width="16" height="2" rx="1"/><rect x="738" y="318" width="16" height="2" rx="1"/>
    <rect x="772" y="318" width="16" height="2" rx="1"/><rect x="806" y="318" width="16" height="2" rx="1"/>
    <rect x="840" y="318" width="16" height="2" rx="1"/><rect x="874" y="318" width="16" height="2" rx="1"/>
  </g>

  <!-- Hot aisle C -->
  <rect x="630" y="395" width="490" height="35" fill="url(#hotaisle)" rx="1"/>
  <text x="870" y="417" font-family="'Montserrat', sans-serif" font-size="9" fill="#3a7fd4" opacity="0.5" text-anchor="middle" letter-spacing="3">HOT AISLE C</text>

  <!-- Row D racks -->
  <g fill="url(#rackgrad)" stroke="#1a5090" stroke-width="0.6" opacity="0.85">
    <rect x="630" y="435" width="28" height="80" rx="2"/>
    <rect x="664" y="435" width="28" height="80" rx="2"/>
    <rect x="698" y="435" width="28" height="80" rx="2"/>
    <rect x="732" y="435" width="28" height="80" rx="2"/>
    <rect x="766" y="435" width="28" height="80" rx="2"/>
    <rect x="800" y="435" width="28" height="80" rx="2"/>
    <rect x="834" y="435" width="28" height="80" rx="2"/>
    <rect x="868" y="435" width="28" height="80" rx="2"/>
    <rect x="902" y="435" width="28" height="80" rx="2"/>
    <rect x="936" y="435" width="28" height="80" rx="2"/>
  </g>
  <g fill="#00C853" opacity="0.6">
    <rect x="636" y="443" width="16" height="2" rx="1"/><rect x="670" y="443" width="16" height="2" rx="1"/>
    <rect x="704" y="443" width="16" height="2" rx="1"/><rect x="738" y="443" width="16" height="2" rx="1"/>
    <rect x="772" y="443" width="16" height="2" rx="1"/><rect x="806" y="443" width="16" height="2" rx="1"/>
  </g>

  <!-- Cold aisle D -->
  <rect x="630" y="520" width="490" height="35" fill="#0a1e3a" rx="1" opacity="0.5"/>
  <text x="870" y="542" font-family="'Montserrat', sans-serif" font-size="9" fill="#5baad4" opacity="0.4" text-anchor="middle" letter-spacing="3">COLD AISLE D</text>

  <!-- Core network switch -->
  <rect x="1080" y="200" width="155" height="195" rx="4" fill="#0a1e3a" stroke="#2a7fd4" stroke-width="1" opacity="0.85"/>
  <text x="1157" y="225" font-family="'Montserrat', sans-serif" font-size="9" fill="#5baad4" opacity="0.7" text-anchor="middle" letter-spacing="2">CORE SWITCH</text>
  <g fill="#00C853" opacity="0.85">
    <rect x="1092" y="238" width="30" height="3" rx="1"/><rect x="1092" y="246" width="30" height="3" rx="1"/>
    <rect x="1092" y="254" width="30" height="3" rx="1"/><rect x="1092" y="262" width="30" height="3" rx="1"/>
    <rect x="1092" y="270" width="30" height="3" rx="1"/><rect x="1092" y="278" width="30" height="3" rx="1"/>
    <rect x="1092" y="286" width="30" height="3" rx="1"/><rect x="1092" y="294" width="30" height="3" rx="1"/>
    <rect x="1132" y="238" width="30" height="3" rx="1"/><rect x="1132" y="246" width="30" height="3" rx="1"/>
    <rect x="1132" y="254" width="30" height="3" rx="1"/><rect x="1132" y="262" width="30" height="3" rx="1"/>
    <rect x="1132" y="270" width="30" height="3" rx="1"/><rect x="1132" y="278" width="30" height="3" rx="1"/>
    <rect x="1132" y="286" width="30" height="3" rx="1"/><rect x="1132" y="294" width="30" height="3" rx="1"/>
    <rect x="1172" y="238" width="30" height="3" rx="1"/><rect x="1172" y="246" width="30" height="3" rx="1"/>
    <rect x="1172" y="254" width="30" height="3" rx="1"/><rect x="1172" y="262" width="30" height="3" rx="1"/>
  </g>
  <rect x="1092" y="350" width="131" height="22" rx="2" fill="#0d2a50" stroke="#1a5090" stroke-width="0.5"/>
  <text x="1157" y="365" font-family="'Montserrat', sans-serif" font-size="8" fill="#4a9ad4" opacity="0.7" text-anchor="middle" letter-spacing="1">UPTIME 99.999%</text>

  <!-- Network traces -->
  <g stroke="#1E90FF" stroke-width="1" fill="none" opacity="0.4" stroke-dasharray="6,4">
    <line x1="1078" y1="250" x2="1050" y2="250"/>
    <line x1="1050" y1="250" x2="1050" y2="100"/>
    <line x1="1050" y1="100" x2="660" y2="100"/>
    <line x1="1078" y1="310" x2="1058" y2="310"/>
    <line x1="1058" y1="310" x2="1058" y2="350"/>
    <line x1="1058" y1="350" x2="660" y2="350"/>
    <line x1="1078" y1="370" x2="1058" y2="370"/>
    <line x1="1058" y1="370" x2="1058" y2="475"/>
    <line x1="1058" y1="475" x2="660" y2="475"/>
  </g>

  <!-- Network nodes -->
  <g fill="#00C853" opacity="0.9">
    <circle cx="660" cy="100" r="4"/><circle cx="840" cy="100" r="4"/><circle cx="1050" cy="100" r="4"/>
    <circle cx="660" cy="350" r="4"/><circle cx="840" cy="350" r="4"/><circle cx="1058" cy="350" r="4"/>
    <circle cx="660" cy="475" r="4"/><circle cx="840" cy="475" r="4"/><circle cx="1058" cy="475" r="4"/>
  </g>

  <!-- UPS units -->
  <rect x="1082" y="445" width="68" height="55" rx="3" fill="#081828" stroke="#1a5090" stroke-width="0.8" opacity="0.8"/>
  <rect x="1162" y="445" width="68" height="55" rx="3" fill="#081828" stroke="#1a5090" stroke-width="0.8" opacity="0.8"/>
  <text x="1116" y="476" font-family="'Montserrat', sans-serif" font-size="8" fill="#3a7fd4" opacity="0.6" text-anchor="middle" letter-spacing="1">UPS-A</text>
  <text x="1196" y="476" font-family="'Montserrat', sans-serif" font-size="8" fill="#3a7fd4" opacity="0.6" text-anchor="middle" letter-spacing="1">UPS-B</text>

  <!-- Dimension annotation hints -->
  <g font-family="'Montserrat', sans-serif" font-weight="300" font-size="9" fill="#3a8fd4" opacity="0.35" letter-spacing="1">
    <text x="860" y="580">TRUST-LIONEL.COM · HOUSTON, TX · NATIONWIDE</text>
  </g>

  <!-- Left fade overlay -->
  <rect width="1280" height="640" fill="url(#fadeleft)"/>

  <!-- White rule -->
  <rect x="80" y="118" width="52" height="3" fill="#FFFFFF" rx="1.5"/>

  <!-- LIONEL MOSLEY -->
  <text x="80" y="228"
    font-family="'Montserrat', sans-serif"
    font-weight="800"
    font-size="78"
    fill="#F8F9FA"
    letter-spacing="2">LIONEL MOSLEY</text>

  <!-- ahr-ki-tekt -->
  <text x="80" y="316"
    font-family="'Montserrat', sans-serif"
    font-weight="700"
    font-size="52"
    fill="#5B9BD5"
    letter-spacing="1">ahr-ki-tekt</text>

  <!-- Divider line -->
  <line x1="80" y1="348" x2="540" y2="348" stroke="#FFFFFF" stroke-width="0.6" opacity="0.35"/>

  <!-- Descriptor -->
  <text x="80" y="386"
    font-family="'Montserrat', sans-serif"
    font-weight="300"
    font-size="18"
    fill="#C8D8E8"
    letter-spacing="0.3">IT Consultant · Innovative Thought Leader · Subject Matter Expert</text>

  <!-- Location -->
  <text x="80" y="436"
    font-family="'Montserrat', sans-serif"
    font-weight="400"
    font-size="16"
    fill="#5B9BD5"
    letter-spacing="0.5">Houston, TX · Nationwide · trust-lionel.com</text>

  <!-- Services -->
  <text x="80" y="470"
    font-family="'Montserrat', sans-serif"
    font-weight="300"
    font-size="14"
    fill="#7A9AB8"
    letter-spacing="0.5">Cloud Services · Cybersecurity · Infrastructure Governance · Technology Strategy</text>

</svg>
